OpenSim_Sub10_EMGStiffKnee_GRF.mot
version=1
nRows=58
nColumns=19
inDegrees=no
endheader
time	lFx	lFy	lFz	lCOPx	lCOPy	lCOPz	rFx	rFy	rFz	rCOPx	rCOPy	rCOPz	lMx	lMy	lMz	rMx	rMy	rMz
62.78000000	22.56768657	586.69327466	49.99726261	0.91889851	0	-0.65022880	0.08846619	-0.43084704	0.19311359	0.00057856	0	-0.00023664	0	-1.33377701	0	0	0.00006026	0.00000000
62.79000000	24.73053109	592.47592447	49.20198521	0.91374468	0	-0.65029205	0.06748196	-0.49081440	0.17791849	0.00020466	0	-0.00006899	0	-1.68903694	0	0	-0.00007663	-0.00000000
62.80000000	26.76672663	597.83293572	48.86896738	0.90889543	0	-0.65050720	0.03948982	-0.42422499	0.14132926	0.00001252	0	0.00000676	0	-2.13422023	0	0	-0.00007771	0.00000000
62.81000000	28.55927672	602.66757208	48.90870222	0.90449984	0	-0.65083529	0.03802764	-0.36288168	0.08953496	-0.00004387	0	0.00002364	0	-2.68801446	0	0	-0.00004248	0.00000000
62.82000000	30.16350652	607.11535731	49.15648084	0.90036825	0	-0.65118818	0.03773736	-0.38907148	0.03253011	-0.00003869	0	0.00001729	0	-3.32816032	0	0	-0.00001378	-0.00000000
62.83000000	31.83425096	611.56968020	49.51140198	0.89630544	0	-0.65151895	0.06419459	-0.42754816	-0.01158035	-0.00001964	0	0.00000771	0	-4.00730645	0	0	0.00000008	0.00000000
62.84000000	33.81881303	616.60846150	49.91279294	0.89227557	0	-0.65186912	0.11524765	-0.46214416	-0.03717819	-0.00000565	0	0.00000166	0	-4.66620053	0	0	0.00000370	0.00000000
62.85000000	36.07955469	622.37014799	50.45379127	0.88848944	0	-0.65223769	0.15266365	-0.43102245	-0.03836729	0.00000059	0	-0.00000068	0	-5.30783193	0	0	0.00000298	-0.00000000
62.86000000	38.32377947	628.22067489	51.10045367	0.88495077	0	-0.65260026	0.16759489	-0.35198171	-0.00599435	0.00000190	0	-0.00000097	0	-5.89036156	0	0	0.00000149	-0.00000000
62.87000000	40.48772256	633.19838816	51.67498169	0.88148535	0	-0.65295756	0.16759779	-0.25350511	0.04640713	0.00000130	0	-0.00000057	0	-6.36671428	0	0	0.00000052	-0.00000000
62.88000000	42.62403685	636.79906472	52.09828018	0.87801934	0	-0.65327652	0.17537618	-0.13006769	0.05414271	0.00000055	0	-0.00000021	0	-6.75097394	0	0	0.00000014	-0.00000000
62.89000000	44.67747719	639.17235092	52.27496760	0.87467519	0	-0.65351102	0.18441935	-0.02056181	0.04247636	0.00000040	0	-0.00000013	0	-6.97412170	0	0	-0.00000009	0.00000000
62.90000000	46.41972462	640.70624212	52.25871206	0.87165635	0	-0.65366932	0.22435316	0.09951908	0.06336485	0.00000110	0	-0.00000037	0	-7.02662882	0	0	-0.00000074	0.00000000
62.91000000	47.80075880	641.21454022	52.05873315	0.86885475	0	-0.65375135	0.27167031	0.18112416	0.08803967	0.00000246	0	-0.00000084	0	-6.93870957	0	0	-0.00000222	0.00000000
62.92000000	48.99016345	640.17564283	51.68249761	0.86613260	0	-0.65374426	0.30073884	0.12907481	0.13384185	0.00000332	0	-0.00000111	0	-6.73330858	0	0	-0.00000429	-0.00000000
62.93000000	50.14018154	637.32199805	51.28683011	0.86343111	0	-0.65364711	0.28563266	0.04616142	0.12768324	0.00000066	0	-0.00000011	0	-6.44094045	0	0	-0.00000484	0.00000000
62.94000000	51.14390764	632.76062363	50.99672448	0.86088869	0	-0.65351517	0.24549768	0.02642907	0.09914475	-0.00001071	0	0.00000392	0	-6.05886523	0	0	0.00000143	-0.00000000
62.95000000	51.96737738	626.48583463	50.79820975	0.85845521	0	-0.65341787	0.19662857	0.08944564	0.11017321	-0.00003532	0	0.00001244	0	-5.58987908	0	0	0.00002274	-0.00000000
62.96000000	52.76762909	618.22352135	50.57298018	0.85599690	0	-0.65341444	0.15012033	0.16009174	0.09377279	-0.00006744	0	0.00002320	0	-5.10627196	0	0	0.00006417	0.00000000
62.97000000	53.63195554	607.58524686	50.22603323	0.85331216	0	-0.65350062	0.13744816	0.19835214	0.03719975	-0.00007236	0	0.00002378	0	-4.68585511	0	0	0.00011005	0.00000000
62.98000000	54.50697652	594.57150905	49.63572159	0.85058236	0	-0.65363725	0.13754061	0.20451973	0.02952999	0.00003442	0	-0.00001521	0	-4.32965846	0	0	0.00009332	0.00000000
62.99000000	55.30162894	579.77925247	48.76321196	0.84787317	0	-0.65376187	0.12708718	0.21772231	0.03615224	0.00037965	0	-0.00013673	0	-3.97526925	0	0	-0.00013185	0.00000000
63	56.23720376	563.83307802	47.61794647	0.84477362	0	-0.65380317	0.13250694	0.27691722	0.02735640	0.00103080	0	-0.00036054	0	-3.56977770	0	0	-0.00075715	0.00000000
63.01000000	57.54907434	547.14016603	46.01062552	0.84085294	0	-0.65370495	0.16679267	0.41374910	0.01740938	0.00171349	0	-0.00058438	0	-3.04411706	0	0	-0.00181608	-0.00000000
63.02000000	59.15550411	529.24410759	43.64046244	0.83623809	0	-0.65344648	0.23245586	0.50063466	-0.02774202	0.00133265	0	-0.00042044	0	-2.40902935	0	0	-0.00268409	0.00000000
63.03000000	60.49966928	508.51130839	40.31680955	0.83128983	0	-0.65302519	0.38049673	0.27910613	-0.07806981	-0.00242096	0	0.00092985	0	-1.74193923	0	0	-0.00132391	0.00000000
63.04000000	61.01289124	483.28732533	35.96708286	0.82616004	0	-0.65239988	0.61907191	-0.72647001	-0.16452534	-0.01245863	0	0.00443852	0	-1.04127049	0	0	0.00612808	-0.00000000
63.05000000	60.45512014	453.14524656	30.77023286	0.82089286	0	-0.65156322	0.79712157	-2.99323452	-0.33343463	-0.02892923	0	0.01005097	0	-0.31328053	0	0	0.02376506	0.00000000
63.06000000	58.74780966	418.29720400	25.15255426	0.81579014	0	-0.65054039	0.43991832	-6.28989826	-0.46227697	-0.04124890	0	0.01391418	0	0.35613266	0	0	0.04945712	0
63.07000000	55.73528286	379.21005918	19.59994922	0.81122228	0	-0.64938554	-1.35623830	-7.94492264	-0.17873218	-0.01647854	0	0.00444950	0	0.86784391	0	0	0.06116824	0
63.08000000	51.20956915	336.56124052	14.43758344	0.80732656	0	-0.64844766	-5.50284694	-0.55488940	1.15560255	0.10600535	0	-0.03915052	0	1.14109010	0	0	-0.00043025	0.00000000
63.09000000	45.25328827	291.14900872	9.77637931	0.80482516	0	-0.64869534	-11.37379105	28.40773484	4.23928102	0.38674047	0	-0.13662802	0	1.15502466	0	0	-0.23325878	0
63.10000000	38.17227833	244.34656886	5.72002707	0.80550365	0	-0.65175918	-15.83141607	92.55844182	8.74563815	0.78267489	0	-0.27030906	0	0.92849811	0	0	-0.71902742	0.00000000
63.11000000	30.45592994	197.93430980	2.49997549	0.81092221	0	-0.65854288	-19.13435023	196.56170324	13.07732353	1.08971908	0	-0.37150283	0	0.47138524	0	0	-1.28715635	0
63.12000000	22.40431256	153.86982411	0.38963204	0.81784665	0	-0.66600185	-29.08828171	323.41273014	12.97671894	1.23246185	0	-0.41729358	0	-0.19433734	0	0	-1.34932623	0
63.13000000	14.53230928	113.90623356	-0.49021540	0.81176226	0	-0.66183261	-48.34299460	441.34597944	4.39334477	1.26702034	0	-0.42689514	0	-1.00106146	0	0	-1.14516779	0.00000000
63.14000000	7.78804516	79.40979033	-0.50270802	0.76130922	0	-0.62038430	-71.86812555	529.65143637	-9.59317478	1.25946559	0	-0.42208749	0	-1.69917220	0	0	-1.13128136	0
63.15000000	2.29742487	51.78126361	-0.34843017	0.62669773	0	-0.50861470	-94.58433641	583.07034637	-20.97186327	1.24582053	0	-0.41548081	0	-1.90664022	0	0	-1.69597626	0
63.16000000	-2.21456430	31.57933383	-0.51232571	0.40372845	0	-0.32406573	-112.61755748	605.39153641	-26.61014564	1.23756157	0	-0.41120294	0	-1.46171536	0	0	-1.75984375	0
63.17000000	-4.72070542	17.68777750	-1.12190973	0.17576380	0	-0.13868367	-126.37255663	608.30749584	-31.84456673	1.23475157	0	-0.40920222	0	-0.72565628	0	0	-1.81904415	0
63.18000000	-4.46502382	8.51538701	-2.05433191	0.03536990	0	-0.02645051	-136.07854671	606.71682250	-39.08572822	1.23430663	0	-0.40831414	0	-0.20008932	0	0	-2.08421335	0
63.19000000	-2.69727981	3.15383859	-3.02422706	-0.01782021	0	0.01523655	-141.43038989	609.54791388	-47.35465483	1.23373504	0	-0.40773228	0	0.02996152	0	0	-2.48429185	-0.00000000
63.20000000	-1.22565113	0.97311870	-3.57810584	-0.02370314	0	0.01926670	-142.16568695	617.52543422	-53.89879688	1.23188519	0	-0.40733539	0	0.07693740	0	0	-2.99906114	0.00000000
63.21000000	-0.54220591	0.67294483	-3.76560179	-0.01442145	0	0.01152400	-138.51093188	627.67633756	-56.73380682	1.22866885	0	-0.40715327	0	0.05416294	0	0	-3.34966708	0.00000000
63.22000000	-0.39953519	0.99202857	-3.80669633	-0.00538258	0	0.00421523	-131.24407506	636.87401908	-55.87379566	1.22419626	0	-0.40724804	0	0.02340253	0	0	-3.54707275	0.00000000
63.23000000	-0.48764515	1.31952249	-3.77602444	-0.00053882	0	0.00036124	-121.40534697	642.70344000	-52.87500660	1.21842914	0	-0.40770460	0	0.00459460	0	0	-3.66005688	0
63.24000000	-0.61341156	1.46315935	-3.79709343	0.00098485	0	-0.00082023	-110.50661905	644.12286210	-49.62986959	1.21164605	0	-0.40825672	0	-0.00246534	0	0	-3.67582913	0
63.25000000	-0.68815693	1.44678582	-3.78885651	0.00093656	0	-0.00075694	-100.19569755	641.53554882	-47.02812016	1.20466316	0	-0.40851520	0	-0.00320045	0	0	-3.65183675	0
63.26000000	-0.71811173	1.39957937	-3.78436806	0.00049579	0	-0.00039430	-91.28200078	635.53879154	-45.28403813	1.19801143	0	-0.40848198	0	-0.00193160	0	0	-3.69234262	0
63.27000000	-0.72763410	1.46468144	-3.76797509	0.00015295	0	-0.00011846	-83.61476970	626.29164541	-44.32511340	1.19176114	0	-0.40849135	0	-0.00071417	0	0	-3.71116987	0
63.28000000	-0.71827436	1.59389544	-3.73641137	-0.00000736	0	0.00000843	-76.64404196	614.51153412	-43.78813313	1.18588619	0	-0.40854705	0	-0.00006671	0	0	-3.68922006	0
63.29000000	-0.69476402	1.61439837	-3.68994876	-0.00004628	0	0.00003804	-69.96047642	601.57041429	-43.41239824	1.18021859	0	-0.40842549	0	0.00013453	0	0	-3.76665541	-0.00000000
63.30000000	-0.65510132	1.48943256	-3.62415653	-0.00003539	0	0.00002846	-63.63758318	588.37368039	-43.55517148	1.17443431	0	-0.40828078	0	0.00012612	0	0	-3.93442991	0
63.31000000	-0.62565160	1.32251403	-3.59898293	-0.00001634	0	0.00001293	-57.91996723	575.46181294	-44.37369812	1.16869413	0	-0.40812711	0	0.00006626	0	0	-4.08734486	0.00000000
63.32000000	-0.61296258	1.22589037	-3.56056309	-0.00000385	0	0.00000292	-52.97817132	563.44026285	-45.42627152	1.16319986	0	-0.40768478	0	0.00002019	0	0	-4.21391949	0
63.33000000	-0.61030119	1.19293898	-3.45311943	0.00000120	0	-0.00000105	-48.69194245	552.69813523	-46.45461305	1.15761944	0	-0.40697644	0	-0.00000119	0	0	-4.31109822	0
63.34000000	-0.58808265	1.22654165	-3.34394781	0.00000199	0	-0.00000162	-44.86643640	543.67255726	-47.33838219	1.15189366	0	-0.40614040	0	-0.00000628	0	0	-4.34895878	0
63.35000000	-0.55304126	1.31476133	-3.26685988	0.00000128	0	-0.00000103	-41.43590241	536.69110459	-47.73375448	1.14608013	0	-0.40519921	0	-0.00000475	0	0	-4.34862590	0
